<svg version="1.1" viewBox="0.0 0.0 500.0 500.0" fill="none" stroke="none" stroke-linecap="square" stroke-miterlimit="10" xmlns:xlink="http://www.w3.org/1999/xlink" xmlns="http://www.w3.org/2000/svg"><clipPath id="p.0"><path d="m0 0l500.0 0l0 500.0l-500.0 0l0 -500.0z" clip-rule="nonzero"/></clipPath><g clip-path="url(#p.0)"><path fill="#000000" fill-opacity="0.0" d="m0 0l500.0 0l0 500.0l-500.0 0z" fill-rule="evenodd"/><path fill="#00ff00" d="m202.57298 439.823l46.56784 -153.02026l0 0l46.567825 153.02026z" fill-rule="evenodd"/><path fill="#00ff00" d="m317.91006 73.81774l0 0c37.94638 34.04344 37.90979 89.22048 -0.08169556 123.241356q-34.394836 30.800125 -68.78967 61.600266q-34.35399 -30.820557 -68.70798 -61.641113l0 0c-37.946365 -34.04344 -37.90979 -89.220474 0.08169556 -123.241356l0 0c37.991486 -34.020885 99.5513 -34.002598 137.49765 0.04084778z" fill-rule="evenodd"/><path fill="#00ff00" d="m442.6056 363.92746l0 0c-37.60797 34.24649 -92.12662 28.522125 -121.77081 -12.785736q-26.837769 -37.397217 -53.675537 -74.794464q34.047607 -31.004364 68.095245 -62.008743l0 0c37.60794 -34.24649 92.12659 -28.522125 121.77078 12.785736l0 0c29.644196 41.307846 23.188293 102.55672 -14.419678 136.8032z" fill-rule="evenodd"/><path fill="#00ff00" d="m317.91006 73.81774l0 0c37.94638 34.04344 37.90979 89.22048 -0.08169556 123.241356q-34.394836 30.800125 -68.78967 61.600266q-34.35399 -30.820557 -68.70798 -61.641113l0 0c-37.946365 -34.04344 -37.90979 -89.220474 0.08169556 -123.241356l0 0c37.991486 -34.020885 99.5513 -34.002598 137.49765 0.04084778z" fill-rule="evenodd"/><path fill="#00ff00" d="m442.6056 363.92746l0 0c-37.60797 34.24649 -92.12662 28.522125 -121.77081 -12.785736q-26.837769 -37.397217 -53.675537 -74.794464q34.047607 -31.004364 68.095245 -62.008743l0 0c37.60794 -34.24649 92.12659 -28.522125 121.77078 12.785736l0 0c29.644196 41.307846 23.188293 102.55672 -14.419678 136.8032z" fill-rule="evenodd"/><path fill="#00ff00" d="m57.394512 365.9508l0 0c37.607967 34.24649 92.1266 28.522125 121.7708 -12.785736q26.837769 -37.397247 53.675552 -74.794464q-34.047623 -31.00438 -68.095245 -62.00876l0 0c-37.607964 -34.24649 -92.12661 -28.522125 -121.7708 12.785736l0 0c-29.64419 41.30783 -23.188276 102.55673 14.419689 136.80322z" fill-rule="evenodd"/><path fill="#00ff00" d="m57.394512 365.9508l0 0c37.607967 34.24649 92.1266 28.522125 121.7708 -12.785736q26.837769 -37.397247 53.675552 -74.794464q-34.047623 -31.00438 -68.095245 -62.00876l0 0c-37.607964 -34.24649 -92.12661 -28.522125 -121.7708 12.785736l0 0c-29.64419 41.30783 -23.188276 102.55673 14.419689 136.80322z" fill-rule="evenodd"/><path fill="#ffffff" d="m342.48697 299.95276l49.44226 -10.910492l10.910492 -49.44226l10.910522 49.44226l49.44223 10.910492l-49.44223 10.910522l-10.910522 49.44223l-10.910492 -49.44223z" fill-rule="evenodd"/></g></svg>